<?xml version="1.0" encoding="UTF-8" standalone="no"?>
<!-- Created with Inkscape (http://www.inkscape.org/) -->

<svg
   width="120"
   height="120"
   viewBox="0 0 120 120"
   version="1.1"
   id="svg1"
   inkscape:version="1.4 (86a8ad7, 2024-10-11)"
   sodipodi:docname="drawing-1.svg"
   xmlns:inkscape="http://www.inkscape.org/namespaces/inkscape"
   xmlns:sodipodi="http://sodipodi.sourceforge.net/DTD/sodipodi-0.dtd"
   xmlns="http://www.w3.org/2000/svg"
   xmlns:svg="http://www.w3.org/2000/svg">
  <sodipodi:namedview
     id="namedview1"
     pagecolor="#ffffff"
     bordercolor="#000000"
     borderopacity="0.25"
     inkscape:showpageshadow="2"
     inkscape:pageopacity="0.0"
     inkscape:pagecheckerboard="0"
     inkscape:deskcolor="#d1d1d1"
     inkscape:document-units="px"
     inkscape:zoom="6.875"
     inkscape:cx="70.981818"
     inkscape:cy="60"
     inkscape:window-width="1618"
     inkscape:window-height="1027"
     inkscape:window-x="1974"
     inkscape:window-y="22"
     inkscape:window-maximized="1"
     inkscape:current-layer="layer1"
     inkscape:export-bgcolor="#ffffff00" />
  <defs
     id="defs1">
    <rect
       x="3.2"
       y="6.5454545"
       width="57.6"
       height="60.072727"
       id="rect2" />
    <rect
       x="2.9090909"
       y="4.6545455"
       width="35.054545"
       height="40.436364"
       id="rect1" />
  </defs>
  <g
     inkscape:label="Layer 1"
     inkscape:groupmode="layer"
     id="layer1"
     style="opacity:1">
    <path
       style="fill:#1a1a1a;stroke:#000000"
       id="path2"
       d="m 53.235167,62.578888 c 0.02327,-0.347326 -0.03706,-0.695583 -0.01537,-1.042413 0.01955,-0.312502 0.0729,-0.622125 0.121345,-0.931466 0.208412,-1.33071 0.548751,-2.624589 0.884945,-3.927246 0.148956,-0.510848 0.323068,-1.015024 0.446868,-1.532544 0.152763,-0.638596 0.234796,-1.292547 0.382019,-1.932443 0.289266,-1.257279 0.797235,-2.97328 1.149882,-4.204839 0.775556,-2.708493 0.497998,-1.743701 1.289335,-4.463549 1.221618,-4.241234 2.570573,-8.443364 3.836306,-12.671195 0.960962,-3.032196 1.837166,-6.088034 2.59429,-9.177265 0.244006,-0.98967 0.476581,-1.982968 0.675027,-2.982942 0.05279,-0.266025 0.118694,-0.530446 0.14792,-0.80008 0.01144,-0.105569 0.05813,-1.62817 0.06182,-1.743433 -0.0031,-0.984899 0.0214,-1.998602 -0.289063,-2.947936 C 64.317833,13.601854 64.195636,13.47464 63.854592,12.908431 63.071439,11.857745 62.146585,10.909677 61.105553,10.112126 60.817257,9.8912583 60.529446,9.6665451 60.216292,9.48261 56.127432,7.0809626 52.007536,4.7325503 47.903157,2.3575205 46.663299,1.8164745 45.389143,1.3619214 44.090471,0.98478578 43.842724,0.91283961 43.596886,0.83220613 43.344672,0.77795335 43.130717,0.73193019 42.911423,0.71569639 42.694799,0.68456791 41.761939,0.62673932 41.092739,0.96904504 40.343709,1.4854372 40.115453,1.6428004 39.875685,1.7878774 39.672115,1.9760884 39.391786,2.2352667 39.156706,2.5394577 38.899002,2.8211424 37.256983,4.4681418 35.37982,5.8610646 33.77494,7.5487116 33.459698,7.8802121 33.169916,8.2350258 32.867403,8.5781829 31.38352,10.445051 30.103137,12.47817 29.029825,14.60798 c -0.227012,0.450469 -0.429319,0.91297 -0.643978,1.369455 -1.351279,2.994064 -2.115016,6.190726 -2.915118,9.361779 -0.33539,2.44049 -1.196933,4.748217 -1.986187,7.065681 -0.177225,0.520382 -0.379255,1.033419 -0.523747,1.563822 -0.169978,0.623959 -0.278899,1.262966 -0.418349,1.894449 -0.58186,2.02418 -0.547872,2.023855 -1.262984,4.028984 -0.239675,0.672035 -0.512617,1.331928 -0.750559,2.004578 -0.250329,0.707667 -0.452174,1.432232 -0.714022,2.135718 -0.484226,1.300933 -1.092668,2.590647 -1.664493,3.85454 -0.989328,2.075086 -2.049256,4.138202 -3.322993,6.056859 -0.673284,1.01418 -1.020108,1.412293 -1.767975,2.356121 -0.839346,0.951192 -1.714552,1.868113 -2.605001,2.771107 -0.275382,0.279262 -0.5614569,0.548312 -0.8269582,0.836983 -1.5554935,1.691244 -0.0816,0.295192 -1.8018686,1.837681 -1.2326833,0.979517 -2.5979508,1.757101 -4.0269461,2.406406 -0.2088501,0.04472 -0.4032012,0.136408 -0.6081056,0.193542 -0.1811859,0.05052 -0.301737,0.04535 -0.4739848,0.123788 -0.2314131,0.105385 -0.3243353,0.212527 -0.5231738,0.381949 -0.7088483,0.714534 -1.54089095,1.278848 -2.38181984,1.823248 0,0 12.13306094,7.653773 12.13306094,7.653773 v 0 c 0.718472,-0.666249 1.522627,-1.226135 2.461638,-1.537508 0.101103,-0.02916 0.429997,-0.120319 0.533538,-0.164102 0.384233,-0.162475 0.692576,-0.475637 1.010017,-0.734427 1.030001,-1.048522 1.752033,-2.364891 2.834065,-3.372629 1.290777,-1.230868 0.621556,-0.629105 2.009719,-1.802998 0.293439,-0.278173 0.559647,-0.584175 0.824795,-0.889435 0.846558,-0.974628 1.616863,-2.020752 2.311739,-3.107762 0.858814,-1.323694 1.674245,-2.645509 2.365118,-4.067962 0.57234,-1.178404 0.9013,-2.030819 1.353319,-3.267502 0.223172,-0.610578 0.429623,-1.227138 0.644434,-1.840706 0.34711,-1.027487 1.011754,-3.029473 1.396534,-4.024609 0.267793,-0.692576 0.584529,-1.36541 0.858488,-2.055571 0.263496,-0.663803 0.49335,-1.340576 0.753611,-2.005654 0.655702,-1.675593 0.916654,-2.234157 1.628691,-3.870308 0.265473,-0.574242 0.574811,-1.130172 0.796418,-1.722726 0.196461,-0.525315 0.312222,-1.07751 0.453789,-1.620199 0.619341,-2.37422 1.017996,-4.818545 1.982566,-7.09048 0.628695,-2.106322 0.333756,-1.158025 0.995914,-3.220645 0.625461,-1.94831 1.257779,-3.899298 2.172922,-5.736294 0.563563,-1.108344 0.724666,-1.469834 1.357138,-2.536911 0.928081,-1.565812 1.993784,-3.049631 3.162819,-4.443973 1.792874,-2.027154 3.672631,-4.050152 6.116435,-5.2968993 0.845841,-0.3086883 1.719034,-0.7030591 2.624561,-0.8101858 0.478602,-0.05662 0.960116,0.011913 1.431446,0.087948 0.219621,0.041332 0.769316,0.1422587 0.968223,0.1911398 1.143626,0.2810458 2.233717,0.7475003 3.256736,1.3271563 -3.485464,-2.0274967 -6.968287,-4.0595408 -10.456392,-6.0824897 -0.287992,-0.1670228 0.575984,0.3345057 0.855953,0.5146539 0.927303,0.5966806 1.762276,1.3143509 2.435844,2.1916397 0.270764,0.3408925 0.498594,0.6062125 0.726912,0.9772247 0.49538,0.8049839 0.729507,1.7066734 0.792163,2.6455894 0.08393,1.686626 0.02724,-0.08451 -0.01565,1.630779 -0.0071,0.283517 0.01213,0.567105 0.01381,0.850706 0.0063,1.070017 -0.03024,2.139379 -0.102177,3.207026 -0.23324,3.25158 -0.680604,6.48956 -1.400075,9.670855 -1.005908,4.320822 -2.021711,8.644658 -3.386631,12.869583 -0.684468,2.149953 -1.379663,4.292532 -2.231026,6.384033 -1.304171,3.203891 -0.294502,0.622529 -1.680559,3.556538 -0.222761,0.47154 -0.404508,0.961387 -0.606762,1.44208 -0.539428,1.16323 -1.063552,2.328163 -1.763472,3.406858 -0.155919,0.240299 -0.311804,0.482894 -0.499544,0.699245 -0.199254,0.229619 -0.467688,0.390802 -0.680643,0.607097 z" />
    <text
       xml:space="preserve"
       style="font-style:normal;font-variant:normal;font-weight:normal;font-stretch:normal;font-size:10.6667px;font-family:'Ink Free';-inkscape-font-specification:'Ink Free, Normal';font-variant-ligatures:normal;font-variant-caps:normal;font-variant-numeric:normal;font-variant-east-asian:normal;text-align:start;writing-mode:lr-tb;direction:ltr;text-anchor:start;white-space:pre;inline-size:58.5364;display:inline;fill:#1a1a1a;stroke:#000000"
       x="60.654545"
       y="58.181816"
       id="text3"><tspan
         x="60.654545"
         y="58.181816"
         id="tspan1">AUKSPORT</tspan></text>
    <path
       style="fill:#1a1a1a;stroke:#000000"
       id="path3"
       d="m 60.330456,30.509675 c -0.03779,0.01426 -0.07559,0.02853 -0.113379,0.0428 -0.06867,0.01824 -0.139515,0.02968 -0.206011,0.05471 -0.130896,0.04927 -0.249113,0.133108 -0.38465,0.167619 -0.861879,0.219449 -1.894529,0.164496 -2.770985,0.160064 -0.423954,-0.0093 -0.847812,-0.02564 -1.271863,-0.02795 -0.485139,-0.0026 -0.970391,0.0255 -1.45538,0.01313 -0.970541,-0.02475 -2.627089,-0.159832 -3.577142,-0.240524 -1.271952,-0.108032 -2.542638,-0.230495 -3.813975,-0.345542 -0.640734,-0.05365 -1.280577,-0.119293 -1.922202,-0.160961 -3.499805,-0.227283 -0.483156,0.06712 -4.163641,-0.262946 -2.144439,-0.192313 -4.281834,-0.453127 -6.417937,-0.719868 -0.638557,-0.07662 -1.275771,-0.165421 -1.915672,-0.229869 -0.602614,-0.06069 -1.208075,-0.08961 -1.811155,-0.145481 -2.146032,-0.198814 -4.284656,-0.482463 -6.422856,-0.750139 -2.039479,-0.284654 -4.076885,-0.598485 -6.126449,-0.802706 -1.634089,-0.148902 -3.26792,-0.30717 -4.904129,-0.435901 -1.281813,-0.08343 -2.566987,-0.178622 -3.8518716,-0.132968 -0.5039643,0.01158 -1.0038483,0.02812 -1.5058726,0.07118 -0.3140266,0.02694 -0.5198031,0.025 -0.8251443,0.107635 -0.1397177,0.03781 -0.2727309,0.09706 -0.4090963,0.145592 -0.4441318,0.136697 -0.8256207,0.394315 -1.2247157,0.620548 -0.4637546,0.262886 -0.9334217,0.503821 -1.3891172,0.781922 -0.6742851,0.379511 -1.2801485,0.892029 -1.7144771,1.538499 -0.093169,0.138676 -0.1706446,0.287274 -0.2559669,0.43091 -0.4960921,0.80154 -0.8677168,1.671601 -1.18486593,2.557091 -0.25608521,0.898036 -0.22969152,1.843802 -0.23493242,2.76924 0.1635639,1.382903 0.5180816,2.631736 1.02742375,3.922629 0.565255,1.509984 1.3668106,2.902393 2.2732537,4.229194 0.1962931,0.260451 0.3850695,0.52674 0.5888793,0.781352 1.0933026,1.365822 0.5845603,0.60069 1.6070158,2.029796 0.7038764,0.983822 1.3428198,2.013832 1.9946495,3.032212 0.7491954,1.190008 1.6380474,2.281276 2.682233,3.224733 0.813352,0.73489 1.120714,0.92904 2.017713,1.596932 0.424177,0.277014 0.832948,0.57919 1.272531,0.83104 4.062871,2.327737 8.118791,4.669369 12.232355,6.906302 0.547279,0.297607 1.15396,0.470183 1.736831,0.690062 1.091641,0.411804 3.118754,1.119883 4.208552,1.456436 0.780845,0.241142 1.571489,0.449326 2.357234,0.673989 0.844561,0.250245 1.687283,0.50678 2.533682,0.750734 4.793027,1.381474 0.340619,0.04727 5.119285,1.464637 2.198288,0.652018 4.392909,1.312922 6.596205,1.948089 3.001959,0.805021 6.036747,1.48202 9.075534,2.131851 1.757758,0.378059 3.522621,0.723801 5.261882,1.181595 0.766814,0.212519 1.533325,0.432653 2.251668,0.780488 0.319072,0.154501 0.630545,0.324306 0.948602,0.480886 4.10461,2.640644 9.512802,5.502399 -11.085219,-6.349746 -0.107421,-0.06181 0.209051,0.133295 0.31602,0.195886 0.510614,0.298781 0.11648,0.02749 0.600611,0.385383 0.413111,0.373426 0.849521,0.763472 1.15022,1.239569 0.07815,0.123734 0.14019,0.256936 0.210285,0.385404 0.504122,0.925487 0.871466,1.908409 1.177515,2.913964 0.04492,0.17987 0.08541,0.3609 0.134746,0.539608 0.05881,0.21305 0.138623,0.420311 0.189617,0.635367 0.210361,0.887145 0.223604,1.820698 0.235145,2.727071 0.01268,1.286431 -0.267318,2.531425 -0.717503,3.728429 -0.06082,0.15013 -0.112487,0.304299 -0.182452,0.45039 -0.178504,0.372731 -0.430266,0.71328 -0.637392,1.069782 -0.404296,0.695869 -0.03537,0.163997 -0.574907,0.873843 -0.833895,0.941739 -1.764245,1.812942 -2.775804,2.562962 -0.291707,0.216286 -0.596748,0.413984 -0.895122,0.620977 -1.036132,0.6496 -2.145037,1.168304 -3.2575,1.670557 -0.377979,0.17065 -0.763813,0.324012 -1.138176,0.502454 -2.367633,1.128545 0.0157,0.123424 -2.564722,1.16051 -1.841055,0.668814 -3.731386,1.231272 -5.654173,1.614117 -0.481658,0.0959 -2.06506,0.348612 -2.565206,0.42979 -1.754858,0.268689 -3.520838,0.508339 -5.294685,0.608993 -1.208129,0.06855 -1.557548,0.0528 -2.755603,0.05442 -2.260341,-0.01999 -4.520536,-0.03283 -6.780842,-0.0577 -1.858371,-0.01569 -3.715313,-0.12473 -5.566822,-0.28049 -1.072473,-0.117741 -2.150358,-0.158716 -3.228428,-0.172857 -0.547652,-0.115369 -1.106616,-0.07852 -1.660006,-0.107838 -0.08434,-0.0045 -0.816202,-0.08511 -0.893693,-0.09352 -0.562946,-0.07383 -0.288873,-0.03706 -0.822254,-0.110083 0,0 11.674224,8.62737 11.674224,8.62737 v 0 c 0.438449,0.0054 0.209083,5.72e-4 0.688072,0.01561 0.878751,0.05153 1.757979,0.158889 2.638452,0.121471 0.939235,-0.0052 1.878971,-0.01804 2.815957,-0.08971 1.720057,-0.07688 3.441547,-0.02414 5.162466,-0.05987 2.153096,-0.03066 4.311127,-0.04922 6.456588,-0.246738 2.725319,-0.251722 5.468875,-0.346813 8.171735,-0.798741 0.418214,-0.0881 0.839646,-0.162105 1.254643,-0.264289 0.691768,-0.170331 1.847331,-0.537228 2.515559,-0.749361 1.41831,-0.450249 2.820889,-0.943445 4.221001,-1.447278 0.499184,-0.168779 0.996875,-0.342038 1.497551,-0.506338 0.493282,-0.161873 0.997819,-0.290585 1.4842,-0.472142 0.400401,-0.149463 0.784459,-0.339734 1.172223,-0.519454 1.159793,-0.537537 2.291683,-1.134444 3.445653,-1.684071 1.668036,-0.830764 3.397253,-1.63955 4.662188,-3.052831 0.135574,-0.130298 0.830792,-0.7889 0.959892,-0.949408 0.103651,-0.128868 0.177858,-0.279093 0.258472,-0.423496 0.267852,-0.4798 0.45241,-0.992209 0.59345,-1.522535 0.292192,-1.379591 0.566064,-2.765954 0.642215,-4.177622 0.03099,-0.582695 0.05653,-0.896866 0.05291,-1.478048 -0.0043,-0.694977 -0.031,-0.740401 -0.06608,-1.426958 -0.0113,-0.221149 0.0021,-0.444138 -0.02575,-0.663812 -0.0253,-0.199266 -0.08877,-0.391803 -0.133149,-0.587705 -0.240804,-1.012601 -0.42994,-2.044456 -0.819461,-3.014015 -0.189548,-0.495757 -0.301043,-1.029831 -0.598495,-1.478663 -0.06936,-0.104654 -0.157905,-0.195273 -0.234216,-0.29497 -0.08129,-0.106195 -0.159003,-0.215076 -0.238504,-0.322614 -0.276331,-0.324698 -0.513837,-0.652407 -0.889497,-0.871506 -3.030158,-1.767299 -8.783786,-5.741655 -13.471261,-7.703737 -1.015995,-0.418739 -2.076283,-0.693951 -3.16407,-0.854318 -1.560285,-0.253147 -3.123578,-0.487304 -4.69131,-0.689941 -2.658099,-0.368147 -5.310271,-0.774566 -7.927902,-1.376041 -2.709321,-0.594294 -5.426139,-1.187999 -8.100201,-1.928211 -0.87151,-0.241245 -1.736619,-0.505146 -2.602389,-0.76624 -0.850781,-0.256573 -1.698101,-0.524485 -2.547151,-0.786728 -2.431388,-0.867802 -4.871749,-1.706533 -7.214703,-2.799178 -0.701913,-0.327339 -2.739785,-1.442151 -2.076876,-1.041671 2.975796,1.797751 6.013536,3.490912 9.020303,5.236368 -0.360435,-0.221254 -0.72087,-0.442509 -1.081305,-0.663763 -0.668282,-0.48099 -1.158042,-0.814816 -1.787234,-1.33824 -1.084772,-0.902419 -2.052125,-1.94279 -2.951483,-3.026708 -0.737371,-0.99965 -1.438874,-2.010899 -2.095782,-3.065845 -0.206663,-0.331886 -0.408798,-0.666604 -0.608221,-1.00289 -0.167745,-0.282866 -0.317455,-0.576503 -0.49322,-0.854456 -0.154508,-0.244338 -0.331122,-0.473975 -0.496683,-0.710963 -0.294563,-0.414022 -0.628597,-0.867857 -0.895253,-1.302436 -0.489582,-0.797888 -0.864029,-1.660563 -1.240349,-2.5152 -0.422567,-1.06185 -0.911619,-2.140726 -0.902383,-3.306435 -0.04514,-0.78451 0.02506,-1.568271 0.140561,-2.344876 0.141697,-0.793894 0.423682,-1.537965 0.91133,-2.188153 0.441642,-0.578391 0.949835,-1.088392 1.564718,-1.485159 0.777528,-0.481255 1.618707,-0.801722 2.526732,-0.935511 0.774985,-0.09061 1.548864,-0.199475 2.329665,-0.226536 1.162433,-0.01851 2.32564,-0.01563 3.487638,0.02247 1.598049,0.07341 3.189159,0.225144 4.7793,0.39772 1.79418,0.161141 3.592285,0.192783 5.392295,0.246074 1.93741,0.08363 3.879088,0.161332 5.814123,0.288563 0.596529,0.03922 1.191406,0.10145 1.787977,0.14004 0.568415,0.03677 1.137761,0.05734 1.706641,0.08601 2.020954,0.124025 4.041808,0.254548 6.057334,0.451291 4.354869,0.425097 0.185971,0.04908 4.565473,0.553035 0.64588,0.07432 1.294683,0.120556 1.942025,0.180834 1.927759,0.180301 3.856622,0.352851 5.780086,0.57574 5.140568,0.595681 -1.240332,-0.13255 3.849909,0.533523 0.484286,0.06337 0.97188,0.09819 1.45782,0.147285 1.223967,0.115416 2.457708,0.214428 3.672544,0.409432 0.283869,0.04557 0.563352,0.115356 0.846064,0.167619 0.118259,0.02186 0.237743,0.03647 0.356614,0.05471 0.07706,0.01427 0.154124,0.02853 0.231186,0.0428 z" />
  </g>
</svg>
